<svg width="406" height="387" viewBox="0 0 406 387" fill="none" xmlns="http://www.w3.org/2000/svg">
<g filter="url(#filter0_d_1501_38)">
<rect x="48.3398" y="20.0078" width="309" height="290.983" rx="8" fill="white"/>
</g>
<path d="M98.0991 55.3582V65.54H99.5607V58.1672H99.6552L102.658 65.5251H103.871L106.874 58.1721H106.968V65.54H108.43V55.3582H106.566L103.324 63.273H103.205L99.9634 55.3582H98.0991ZM113.835 65.6942C115.501 65.6942 116.679 64.8738 117.017 63.6309L115.61 63.3774C115.342 64.0983 114.695 64.4662 113.85 64.4662C112.578 64.4662 111.722 63.6409 111.683 62.1693H117.112V61.6423C117.112 58.8831 115.461 57.8042 113.731 57.8042C111.603 57.8042 110.201 59.425 110.201 61.7716C110.201 64.143 111.583 65.6942 113.835 65.6942ZM111.688 61.0557C111.747 59.9719 112.533 59.0322 113.741 59.0322C114.894 59.0322 115.65 59.8873 115.655 61.0557H111.688ZM121.62 65.6892C123.012 65.6892 123.559 64.839 123.827 64.3518H123.951V65.54H125.403V55.3582H123.917V59.1416H123.827C123.559 58.6693 123.051 57.8042 121.63 57.8042C119.785 57.8042 118.428 59.2609 118.428 61.7368C118.428 64.2077 119.765 65.6892 121.62 65.6892ZM121.948 64.4214C120.62 64.4214 119.929 63.2531 119.929 61.7219C119.929 60.2055 120.605 59.067 121.948 59.067C123.245 59.067 123.941 60.126 123.941 61.7219C123.941 63.3277 123.23 64.4214 121.948 64.4214ZM127.525 65.54H129.011V57.9037H127.525V65.54ZM128.275 56.7254C128.787 56.7254 129.215 56.3277 129.215 55.8405C129.215 55.3532 128.787 54.9506 128.275 54.9506C127.758 54.9506 127.336 55.3532 127.336 55.8405C127.336 56.3277 127.758 56.7254 128.275 56.7254ZM133.233 65.7091C134.496 65.7091 135.207 65.0677 135.49 64.496H135.55V65.54H137.002V60.469C137.002 58.2467 135.252 57.8042 134.039 57.8042C132.657 57.8042 131.384 58.3611 130.887 59.7531L132.284 60.0713C132.502 59.5294 133.059 59.0074 134.059 59.0074C135.018 59.0074 135.51 59.5095 135.51 60.3746V60.4094C135.51 60.9513 134.953 60.9413 133.581 61.1004C132.135 61.2694 130.653 61.6473 130.653 63.3824C130.653 64.8838 131.782 65.7091 133.233 65.7091ZM133.556 64.5159C132.716 64.5159 132.11 64.1381 132.11 63.4023C132.11 62.6068 132.816 62.3234 133.676 62.2091C134.158 62.1444 135.301 62.0152 135.515 61.8014V62.7858C135.515 63.6906 134.794 64.5159 133.556 64.5159ZM142.304 56.6807H145.476V65.54H147.007V56.6807H150.184V55.3582H142.304V56.6807ZM151.871 68.4037C153.099 68.4037 153.874 67.7623 154.317 66.5592L157.474 57.9186L155.868 57.9037L153.934 63.8298H153.854L151.92 57.9037H150.329L153.123 65.6395L152.939 66.1466C152.562 67.1608 152.03 67.2453 151.214 67.0216L150.856 68.2396C151.035 68.3192 151.423 68.4037 151.871 68.4037ZM158.874 68.4037H160.361V64.3518H160.45C160.719 64.839 161.266 65.6892 162.658 65.6892C164.507 65.6892 165.849 64.2077 165.849 61.7368C165.849 59.2609 164.487 57.8042 162.643 57.8042C161.226 57.8042 160.714 58.6693 160.45 59.1416H160.326V57.9037H158.874V68.4037ZM160.331 61.7219C160.331 60.126 161.027 59.067 162.325 59.067C163.672 59.067 164.348 60.2055 164.348 61.7219C164.348 63.2531 163.652 64.4214 162.325 64.4214C161.047 64.4214 160.331 63.3277 160.331 61.7219ZM170.806 65.6942C172.472 65.6942 173.65 64.8738 173.988 63.6309L172.581 63.3774C172.312 64.0983 171.666 64.4662 170.821 64.4662C169.548 64.4662 168.693 63.6409 168.653 62.1693H174.082V61.6423C174.082 58.8831 172.432 57.8042 170.702 57.8042C168.574 57.8042 167.172 59.425 167.172 61.7716C167.172 64.143 168.554 65.6942 170.806 65.6942ZM168.658 61.0557C168.718 59.9719 169.504 59.0322 170.712 59.0322C171.865 59.0322 172.621 59.8873 172.626 61.0557H168.658Z" fill="#333333"/>
<path d="M76.8618 60.5498C76.8618 59.9559 77.038 59.3752 77.368 58.8813C77.698 58.3875 78.167 58.0026 78.7157 57.7752C79.2645 57.5479 79.8683 57.4885 80.4509 57.6043C81.0335 57.7202 81.5686 58.0063 81.9886 58.4263C82.4086 58.8463 82.6946 59.3814 82.8105 59.9639C82.9264 60.5465 82.8669 61.1503 82.6396 61.6991C82.4123 62.2479 82.0274 62.7169 81.5335 63.0469C81.0396 63.3769 80.459 63.553 79.865 63.553C79.0685 63.553 78.3046 63.2366 77.7414 62.6734C77.1782 62.1102 76.8618 61.3463 76.8618 60.5498ZM75.2382 60.5498C75.2382 61.4648 75.5095 62.3592 76.0178 63.12C76.5261 63.8808 77.2486 64.4738 78.0939 64.8239C78.9393 65.1741 79.8694 65.2657 80.7668 65.0873C81.6642 64.9088 82.4886 64.4683 83.1356 63.8213C83.7826 63.1744 84.2233 62.3501 84.4018 61.4527C84.5804 60.5553 84.4889 59.6251 84.1388 58.7798C83.7887 57.9344 83.1958 57.2119 82.4351 56.7034C81.6744 56.195 80.78 55.9236 79.865 55.9235C79.2575 55.9235 78.6559 56.0431 78.0946 56.2756C77.5333 56.5081 77.0233 56.8489 76.5937 57.2785C76.1641 57.7081 75.8233 58.2181 75.5908 58.7794C75.3583 59.3407 75.2387 59.9423 75.2387 60.5498H75.2382ZM83.5925 55.7401C83.5924 55.954 83.6558 56.163 83.7745 56.3409C83.8932 56.5187 84.062 56.6573 84.2596 56.7392C84.4571 56.8211 84.6745 56.8426 84.8842 56.8009C85.0939 56.7593 85.2866 56.6564 85.4379 56.5052C85.5891 56.3541 85.6921 56.1615 85.7339 55.9518C85.7757 55.7421 85.7544 55.5247 85.6726 55.3271C85.5909 55.1295 85.4523 54.9606 85.2746 54.8418C85.0968 54.7229 84.8878 54.6594 84.674 54.6594C84.3874 54.6595 84.1125 54.7734 83.9098 54.976C83.7071 55.1787 83.5931 55.4535 83.5928 55.7401H83.5925ZM76.2259 67.8834C75.6545 67.8769 75.0885 67.7721 74.5527 67.5736C74.1614 67.4289 73.8074 67.1987 73.5165 66.8996C73.217 66.6094 72.9866 66.2554 72.8425 65.864C72.6437 65.3283 72.5386 64.7623 72.532 64.1909C72.4883 63.2412 72.479 62.9559 72.479 60.55C72.479 58.1441 72.4883 57.8595 72.532 56.9091C72.5391 56.3378 72.6439 55.7719 72.8418 55.236C72.9865 54.8446 73.2167 54.4906 73.5158 54.1997C73.8062 53.9 74.1604 53.6697 74.552 53.5257C75.088 53.327 75.6542 53.2221 76.2259 53.2157C77.1756 53.1721 77.4609 53.1627 79.865 53.1627C82.2691 53.1627 82.5555 53.1721 83.5059 53.2157C84.0772 53.2229 84.6431 53.3277 85.1791 53.5256C85.5705 53.6699 85.9246 53.9002 86.2153 54.1995C86.5146 54.4902 86.7449 54.8443 86.8893 55.2358C87.0879 55.7716 87.1927 56.3375 87.1991 56.9089C87.2428 57.8593 87.2521 58.1439 87.2521 60.5498C87.2521 62.9557 87.2435 63.2403 87.1991 64.1907C87.1922 64.7621 87.0874 65.328 86.8893 65.8639C86.7393 66.2524 86.5097 66.6053 86.2151 66.8997C85.9206 67.1941 85.5677 67.4236 85.1791 67.5734C84.6433 67.772 84.0773 67.8768 83.5059 67.8832C82.5562 67.9269 82.2709 67.9362 79.865 67.9362C77.4591 67.9362 77.1745 67.9276 76.2259 67.8832V67.8834ZM76.1506 51.5949C75.4032 51.6097 74.6638 51.7512 73.9638 52.0134C73.3625 52.2396 72.8178 52.5942 72.3677 53.0525C71.9089 53.5022 71.5542 54.047 71.3284 54.6484C71.0662 55.3485 70.9248 56.088 70.9101 56.8354C70.8657 57.7961 70.8555 58.1031 70.8555 60.5498C70.8555 62.9965 70.8657 63.3036 70.9101 64.2642C70.9249 65.0116 71.0664 65.751 71.3286 66.4511C71.5544 67.0525 71.909 67.5973 72.3677 68.0472C72.818 68.5052 73.3626 68.8598 73.9636 69.0865C74.6636 69.3486 75.4031 69.4901 76.1504 69.505C77.1116 69.5486 77.4181 69.5595 79.8648 69.5595C82.3115 69.5595 82.6186 69.5493 83.5792 69.505C84.3266 69.4902 85.0661 69.3486 85.7661 69.0865C86.3647 68.855 86.9084 68.501 87.3622 68.0472C87.816 67.5934 88.17 67.0497 88.4015 66.4511C88.664 65.7511 88.8055 65.0116 88.82 64.2642C88.8636 63.3029 88.873 62.9965 88.873 60.5498C88.873 58.1031 88.8627 57.7961 88.82 56.8354C88.8052 56.088 88.6637 55.3486 88.4015 54.6486C88.1749 54.0475 87.8203 53.5029 87.3624 53.0525C86.9127 52.594 86.3682 52.2393 85.7671 52.0132C85.0671 51.7509 84.3276 51.6094 83.5801 51.5949C82.6196 51.5512 82.3124 51.5403 79.865 51.5403C77.4176 51.5403 77.1109 51.5505 76.1499 51.5949" fill="url(#paint0_radial_1501_38)"/>
<path d="M76.8618 60.5498C76.8618 59.9559 77.038 59.3752 77.368 58.8813C77.698 58.3875 78.167 58.0026 78.7157 57.7752C79.2645 57.5479 79.8683 57.4885 80.4509 57.6043C81.0335 57.7202 81.5686 58.0063 81.9886 58.4263C82.4086 58.8463 82.6946 59.3814 82.8105 59.9639C82.9264 60.5465 82.8669 61.1503 82.6396 61.6991C82.4123 62.2479 82.0274 62.7169 81.5335 63.0469C81.0396 63.3769 80.459 63.553 79.865 63.553C79.0685 63.553 78.3046 63.2366 77.7414 62.6734C77.1782 62.1102 76.8618 61.3463 76.8618 60.5498ZM75.2382 60.5498C75.2382 61.4648 75.5095 62.3592 76.0178 63.12C76.5261 63.8808 77.2486 64.4738 78.0939 64.8239C78.9393 65.1741 79.8694 65.2657 80.7668 65.0873C81.6642 64.9088 82.4886 64.4683 83.1356 63.8213C83.7826 63.1744 84.2233 62.3501 84.4018 61.4527C84.5804 60.5553 84.4889 59.6251 84.1388 58.7798C83.7887 57.9344 83.1958 57.2119 82.4351 56.7034C81.6744 56.195 80.78 55.9236 79.865 55.9235C79.2575 55.9235 78.6559 56.0431 78.0946 56.2756C77.5333 56.5081 77.0233 56.8489 76.5937 57.2785C76.1641 57.7081 75.8233 58.2181 75.5908 58.7794C75.3583 59.3407 75.2387 59.9423 75.2387 60.5498H75.2382ZM83.5925 55.7401C83.5924 55.954 83.6558 56.163 83.7745 56.3409C83.8932 56.5187 84.062 56.6573 84.2596 56.7392C84.4571 56.8211 84.6745 56.8426 84.8842 56.8009C85.0939 56.7593 85.2866 56.6564 85.4379 56.5052C85.5891 56.3541 85.6921 56.1615 85.7339 55.9518C85.7757 55.7421 85.7544 55.5247 85.6726 55.3271C85.5909 55.1295 85.4523 54.9606 85.2746 54.8418C85.0968 54.7229 84.8878 54.6594 84.674 54.6594C84.3874 54.6595 84.1125 54.7734 83.9098 54.976C83.7071 55.1787 83.5931 55.4535 83.5928 55.7401H83.5925ZM76.2259 67.8834C75.6545 67.8769 75.0885 67.7721 74.5527 67.5736C74.1614 67.4289 73.8074 67.1987 73.5165 66.8996C73.217 66.6094 72.9866 66.2554 72.8425 65.864C72.6437 65.3283 72.5386 64.7623 72.532 64.1909C72.4883 63.2412 72.479 62.9559 72.479 60.55C72.479 58.1441 72.4883 57.8595 72.532 56.9091C72.5391 56.3378 72.6439 55.7719 72.8418 55.236C72.9865 54.8446 73.2167 54.4906 73.5158 54.1997C73.8062 53.9 74.1604 53.6697 74.552 53.5257C75.088 53.327 75.6542 53.2221 76.2259 53.2157C77.1756 53.1721 77.4609 53.1627 79.865 53.1627C82.2691 53.1627 82.5555 53.1721 83.5059 53.2157C84.0772 53.2229 84.6431 53.3277 85.1791 53.5256C85.5705 53.6699 85.9246 53.9002 86.2153 54.1995C86.5146 54.4902 86.7449 54.8443 86.8893 55.2358C87.0879 55.7716 87.1927 56.3375 87.1991 56.9089C87.2428 57.8593 87.2521 58.1439 87.2521 60.5498C87.2521 62.9557 87.2435 63.2403 87.1991 64.1907C87.1922 64.7621 87.0874 65.328 86.8893 65.8639C86.7393 66.2524 86.5097 66.6053 86.2151 66.8997C85.9206 67.1941 85.5677 67.4236 85.1791 67.5734C84.6433 67.772 84.0773 67.8768 83.5059 67.8832C82.5562 67.9269 82.2709 67.9362 79.865 67.9362C77.4591 67.9362 77.1745 67.9278 76.2259 67.8834ZM76.1506 51.5949C75.4032 51.6097 74.6638 51.7512 73.9638 52.0134C73.3625 52.2396 72.8178 52.5942 72.3677 53.0525C71.9089 53.5022 71.5542 54.047 71.3284 54.6484C71.0662 55.3485 70.9248 56.088 70.9101 56.8354C70.8657 57.7961 70.8555 58.1031 70.8555 60.5498C70.8555 62.9965 70.8657 63.3036 70.9101 64.2642C70.9249 65.0116 71.0664 65.751 71.3286 66.4511C71.5544 67.0525 71.909 67.5973 72.3677 68.0472C72.818 68.5052 73.3626 68.8598 73.9636 69.0865C74.6636 69.3486 75.4031 69.4901 76.1504 69.505C77.1116 69.5486 77.4181 69.5595 79.8648 69.5595C82.3115 69.5595 82.6186 69.5493 83.5792 69.505C84.3266 69.4902 85.0661 69.3486 85.7661 69.0865C86.3647 68.855 86.9084 68.501 87.3622 68.0472C87.816 67.5934 88.17 67.0497 88.4015 66.4511C88.664 65.7511 88.8055 65.0116 88.82 64.2642C88.8636 63.3029 88.873 62.9965 88.873 60.5498C88.873 58.1031 88.8627 57.7961 88.82 56.8354C88.8052 56.088 88.6637 55.3486 88.4015 54.6486C88.1749 54.0475 87.8203 53.5029 87.3624 53.0525C86.9127 52.594 86.3682 52.2393 85.7671 52.0132C85.0671 51.7509 84.3276 51.6094 83.5801 51.5949C82.6196 51.5512 82.3124 51.5403 79.865 51.5403C77.4176 51.5403 77.1109 51.5505 76.1499 51.5949" fill="url(#paint1_radial_1501_38)"/>
<path d="M280.404 53.3413H270.314C269.741 53.3413 269.191 53.5691 268.785 53.9746C268.38 54.38 268.152 54.93 268.152 55.5034V65.5932C268.152 66.1666 268.38 66.7166 268.785 67.122C269.191 67.5275 269.741 67.7553 270.314 67.7553H280.404C280.977 67.7553 281.527 67.5275 281.933 67.122C282.338 66.7166 282.566 66.1666 282.566 65.5932V55.5034C282.566 54.93 282.338 54.38 281.933 53.9746C281.527 53.5691 280.977 53.3413 280.404 53.3413ZM280.404 54.7827C280.595 54.7827 280.778 54.8586 280.913 54.9938C281.049 55.129 281.124 55.3123 281.124 55.5034V59.8276H276.08V54.7827H280.404ZM269.593 55.5034C269.593 55.3123 269.669 55.129 269.804 54.9938C269.94 54.8586 270.123 54.7827 270.314 54.7827H274.638V59.8276H269.593V55.5034ZM270.314 66.3139C270.123 66.3139 269.94 66.238 269.804 66.1028C269.669 65.9677 269.593 65.7843 269.593 65.5932V61.269H274.638V66.3139H270.314ZM281.124 65.5932C281.124 65.7843 281.049 65.9677 280.913 66.1028C280.778 66.238 280.595 66.3139 280.404 66.3139H276.08V61.269H281.124V65.5932Z" fill="#666666"/>
<circle cx="275.359" cy="60.5483" r="16.6662" stroke="#EEF0F2" stroke-width="0.900875"/>
<path d="M315.687 54.0627C315.687 53.6647 315.377 53.342 314.994 53.342C314.611 53.342 314.301 53.6647 314.301 54.0627V61.4037L312.989 60.0394C312.719 59.758 312.28 59.758 312.009 60.0394C311.739 60.3209 311.739 60.7772 312.009 61.0586L314.504 63.6532C314.578 63.73 314.664 63.7858 314.756 63.8207C314.83 63.8489 314.911 63.8643 314.994 63.8643C315.102 63.8643 315.205 63.8385 315.296 63.7925C315.338 63.7713 315.378 63.7455 315.416 63.7149C315.442 63.6941 315.467 63.6714 315.49 63.6471L317.979 61.0586C318.249 60.7772 318.249 60.3209 317.979 60.0394C317.708 59.758 317.269 59.758 316.999 60.0394L315.687 61.4036V54.0627Z" fill="#666666"/>
<path d="M309.381 63.0715C309.764 63.0715 310.074 63.3942 310.074 63.7922V65.7381C310.074 65.891 310.132 66.0376 310.236 66.1458C310.34 66.2539 310.481 66.3146 310.628 66.3146H319.36C319.507 66.3146 319.648 66.2539 319.752 66.1458C319.856 66.0376 319.914 65.891 319.914 65.7381V63.7922C319.914 63.3942 320.224 63.0715 320.607 63.0715C320.99 63.0715 321.3 63.3942 321.3 63.7922V65.7381C321.3 66.2733 321.096 66.7865 320.732 67.165C320.368 67.5434 319.874 67.756 319.36 67.756H310.628C310.114 67.756 309.62 67.5434 309.256 67.165C308.892 66.7865 308.688 66.2733 308.688 65.7381V63.7922C308.688 63.3942 308.998 63.0715 309.381 63.0715Z" fill="#666666"/>
<circle cx="314.996" cy="60.5485" r="16.6662" stroke="#EEF0F2" stroke-width="0.900875"/>
<circle cx="205.993" cy="181.265" r="73.8717" stroke="#F5F5F5" stroke-width="15.3149"/>
<g filter="url(#filter1_d_1501_38)">
<path d="M205.993 107.394C165.194 107.394 132.121 140.467 132.121 181.265C132.121 222.063 165.194 255.137 205.993 255.137C221.942 255.137 236.711 250.083 248.784 241.488" stroke="#DE2879" stroke-width="27.0262"/>
</g>
<path d="M218.605 151.536H74.465C71.9773 151.536 69.9606 153.553 69.9606 156.041V202.886C69.9606 205.374 71.9773 207.391 74.465 207.391H136.175L142.031 213.246L147.886 207.391H218.605C221.093 207.391 223.109 205.374 223.109 202.886V156.041C223.109 153.553 221.093 151.536 218.605 151.536Z" fill="#293134"/>
<path d="M82.4731 173.999H83.8495L87.6464 166.44V165.272H81.8765V166.401H86.2827V166.465L82.4731 173.999ZM89.0082 173.999H94.7526V172.87H90.8236V172.806L92.558 170.991C94.156 169.376 94.6119 168.604 94.6119 167.629C94.6119 166.227 93.4699 165.153 91.825 165.153C90.1929 165.153 88.9997 166.209 88.9997 167.803H90.2568C90.2526 166.866 90.8577 166.252 91.7994 166.252C92.6858 166.252 93.3591 166.798 93.3591 167.667C93.3591 168.438 92.8989 168.992 91.9614 169.985L89.0082 173.045V173.999ZM97.1042 174.08C97.5686 174.08 97.9564 173.701 97.9564 173.228C97.9564 172.763 97.5686 172.38 97.1042 172.38C96.6354 172.38 96.2519 172.763 96.2519 173.228C96.2519 173.701 96.6354 174.08 97.1042 174.08ZM102.26 174.119C104.041 174.119 105.349 173.053 105.345 171.604C105.349 170.501 104.68 169.708 103.521 169.529V169.461C104.433 169.227 105.025 168.511 105.021 167.531C105.025 166.248 103.973 165.153 102.294 165.153C100.692 165.153 99.4046 166.12 99.362 167.539H100.636C100.666 166.738 101.42 166.252 102.277 166.252C103.167 166.252 103.751 166.793 103.747 167.599C103.751 168.442 103.074 168.996 102.106 168.996H101.369V170.07H102.106C103.317 170.07 104.015 170.684 104.015 171.562C104.015 172.41 103.278 172.985 102.251 172.985C101.305 172.985 100.568 172.499 100.517 171.724H99.1788C99.2342 173.147 100.496 174.119 102.26 174.119ZM111.391 172.363C111.395 173.347 112.013 174.178 113.168 174.178C114.31 174.178 114.937 173.347 114.937 172.363V171.903C114.937 170.914 114.327 170.087 113.168 170.087C112.03 170.087 111.395 170.918 111.391 171.903V172.363ZM107.002 167.369C107.002 168.353 107.624 169.184 108.779 169.184C109.917 169.184 110.547 168.357 110.543 167.369V166.908C110.547 165.92 109.934 165.093 108.779 165.093C107.645 165.093 107.002 165.92 107.002 166.908V167.369ZM107.36 173.999H108.378L114.378 165.272H113.36L107.36 173.999ZM112.384 171.903C112.388 171.413 112.601 170.94 113.168 170.94C113.756 170.94 113.939 171.413 113.939 171.903V172.363C113.939 172.853 113.739 173.326 113.168 173.326C112.589 173.326 112.388 172.849 112.384 172.363V171.903ZM107.999 166.908C107.999 166.423 108.212 165.945 108.779 165.945C109.367 165.945 109.55 166.418 109.55 166.908V167.369C109.55 167.859 109.35 168.332 108.779 168.332C108.199 168.332 107.999 167.859 107.999 167.369V166.908ZM122.483 174.131C124.328 174.131 125.534 172.781 125.534 170.756C125.534 168.719 124.328 167.369 122.483 167.369C120.638 167.369 119.432 168.719 119.432 170.756C119.432 172.781 120.638 174.131 122.483 174.131ZM122.487 173.062C121.281 173.062 120.719 172.009 120.719 170.752C120.719 169.499 121.281 168.434 122.487 168.434C123.685 168.434 124.247 169.499 124.247 170.752C124.247 172.009 123.685 173.062 122.487 173.062ZM129.952 167.454H128.541V166.866C128.541 166.286 128.78 165.971 129.402 165.971C129.666 165.971 129.854 166.031 129.973 166.069L130.271 165.038C130.092 164.969 129.721 164.863 129.206 164.863C128.17 164.863 127.263 165.468 127.263 166.695V167.454H126.253V168.477H127.263V173.999H128.541V168.477H129.952V167.454ZM137.257 167.454H135.915V165.886H134.641V167.454H133.682V168.477H134.641V172.342C134.637 173.531 135.544 174.106 136.55 174.084C136.955 174.08 137.228 174.004 137.377 173.948L137.147 172.896C137.061 172.913 136.904 172.951 136.699 172.951C136.286 172.951 135.915 172.815 135.915 172.077V168.477H137.257V167.454ZM139.962 170.113C139.962 169.069 140.622 168.472 141.53 168.472C142.408 168.472 142.932 169.031 142.932 169.989V173.999H144.206V169.836C144.206 168.204 143.311 167.369 141.964 167.369C140.946 167.369 140.332 167.812 140.026 168.519H139.945V165.272H138.687V173.999H139.962V170.113ZM148.607 174.131C150.035 174.131 151.045 173.428 151.335 172.363L150.129 172.146C149.898 172.763 149.344 173.079 148.62 173.079C147.529 173.079 146.796 172.371 146.762 171.11H151.415V170.658C151.415 168.293 150.001 167.369 148.518 167.369C146.694 167.369 145.492 168.758 145.492 170.769C145.492 172.802 146.677 174.131 148.607 174.131ZM146.766 170.156C146.817 169.227 147.491 168.421 148.526 168.421C149.515 168.421 150.163 169.154 150.167 170.156H146.766ZM155.765 173.999H157.039V169.964C157.039 169.082 157.657 168.468 158.381 168.468C159.089 168.468 159.579 168.937 159.579 169.648V173.999H160.849V169.827C160.849 169.039 161.33 168.468 162.161 168.468C162.835 168.468 163.389 168.843 163.389 169.729V173.999H164.663V169.61C164.663 168.114 163.827 167.369 162.643 167.369C161.701 167.369 160.994 167.82 160.678 168.519H160.61C160.325 167.803 159.724 167.369 158.85 167.369C157.985 167.369 157.342 167.799 157.069 168.519H156.988V167.454H155.765V173.999ZM169.071 174.131C170.499 174.131 171.509 173.428 171.799 172.363L170.593 172.146C170.363 172.763 169.809 173.079 169.084 173.079C167.993 173.079 167.26 172.371 167.226 171.11H171.88V170.658C171.88 168.293 170.465 167.369 168.982 167.369C167.158 167.369 165.956 168.758 165.956 170.769C165.956 172.802 167.141 174.131 169.071 174.131ZM167.231 170.156C167.282 169.227 167.955 168.421 168.991 168.421C169.979 168.421 170.627 169.154 170.631 170.156H167.231ZM175.624 174.127C176.817 174.127 177.286 173.398 177.516 172.981H177.622V173.999H178.867V165.272H177.592V168.515H177.516C177.286 168.11 176.851 167.369 175.632 167.369C174.051 167.369 172.888 168.617 172.888 170.739C172.888 172.857 174.034 174.127 175.624 174.127ZM175.905 173.04C174.767 173.04 174.175 172.039 174.175 170.727C174.175 169.427 174.754 168.451 175.905 168.451C177.017 168.451 177.614 169.359 177.614 170.727C177.614 172.103 177.004 173.04 175.905 173.04ZM180.565 173.999H181.839V167.454H180.565V173.999ZM181.209 166.444C181.648 166.444 182.014 166.103 182.014 165.685C182.014 165.268 181.648 164.923 181.209 164.923C180.765 164.923 180.403 165.268 180.403 165.685C180.403 166.103 180.765 166.444 181.209 166.444ZM185.338 174.144C186.421 174.144 187.03 173.594 187.273 173.104H187.324V173.999H188.568V169.653C188.568 167.748 187.068 167.369 186.029 167.369C184.844 167.369 183.753 167.846 183.327 169.039L184.524 169.312C184.712 168.847 185.189 168.4 186.046 168.4C186.868 168.4 187.29 168.83 187.29 169.572V169.602C187.29 170.066 186.813 170.058 185.637 170.194C184.396 170.339 183.127 170.663 183.127 172.15C183.127 173.437 184.094 174.144 185.338 174.144ZM185.615 173.121C184.895 173.121 184.375 172.798 184.375 172.167C184.375 171.485 184.98 171.242 185.718 171.144C186.131 171.089 187.111 170.978 187.294 170.795V171.638C187.294 172.414 186.676 173.121 185.615 173.121ZM196.316 167.454H194.906V166.866C194.906 166.286 195.144 165.971 195.767 165.971C196.031 165.971 196.218 166.031 196.338 166.069L196.636 165.038C196.457 164.969 196.086 164.863 195.571 164.863C194.535 164.863 193.627 165.468 193.627 166.695V167.454H192.617V168.477H193.627V173.999H194.906V168.477H196.316V167.454ZM200.01 174.131C201.855 174.131 203.061 172.781 203.061 170.756C203.061 168.719 201.855 167.369 200.01 167.369C198.165 167.369 196.959 168.719 196.959 170.756C196.959 172.781 198.165 174.131 200.01 174.131ZM200.014 173.062C198.809 173.062 198.246 172.009 198.246 170.752C198.246 169.499 198.809 168.434 200.014 168.434C201.212 168.434 201.774 169.499 201.774 170.752C201.774 172.009 201.212 173.062 200.014 173.062ZM204.364 173.999H205.638V170.002C205.638 169.146 206.298 168.528 207.202 168.528C207.466 168.528 207.764 168.575 207.866 168.604V167.386C207.739 167.369 207.487 167.356 207.325 167.356C206.558 167.356 205.902 167.79 205.663 168.494H205.595V167.454H204.364V173.999ZM85.4688 189.999H86.4915L86.8751 187.664H88.1322L88.2983 186.641H87.0412L87.3736 184.63H88.6393L88.8054 183.607H87.5398L87.9233 181.272H86.9006L86.5171 183.607H84.4716L84.8552 181.272H83.8324L83.4489 183.607H82.1918L82.0256 184.63H83.2827L82.9503 186.641H81.6847L81.5185 187.664H82.7841L82.4006 189.999H83.4233L83.8069 187.664H85.8523L85.4688 189.999ZM83.9731 186.641L84.3054 184.63H86.3509L86.0185 186.641H83.9731ZM94.6215 185.052C94.3573 184.033 93.5604 183.369 92.1457 183.369C90.667 183.369 89.6187 184.148 89.6187 185.308C89.6187 186.236 90.1812 186.854 91.4085 187.127L92.5164 187.37C93.1471 187.511 93.4411 187.792 93.4411 188.201C93.4411 188.708 92.8999 189.104 92.0647 189.104C91.3019 189.104 90.8119 188.776 90.6585 188.133L89.4269 188.32C89.64 189.479 90.6031 190.131 92.0732 190.131C93.6542 190.131 94.7494 189.292 94.7494 188.107C94.7494 187.183 94.1613 186.611 92.9596 186.334L91.9198 186.096C91.1997 185.925 90.8886 185.683 90.8928 185.239C90.8886 184.736 91.434 184.379 92.1585 184.379C92.9511 184.379 93.3176 184.817 93.4667 185.256L94.6215 185.052ZM100.177 187.285C100.181 188.397 99.3542 188.925 98.6382 188.925C97.8499 188.925 97.3044 188.354 97.3044 187.464V183.454H96.0303V187.617C96.0303 189.241 96.9209 190.084 98.178 190.084C99.1624 190.084 99.8314 189.565 100.134 188.866H100.202V189.999H101.455V183.454H100.177V187.285ZM104.321 186.113C104.321 185.069 104.96 184.472 105.847 184.472C106.712 184.472 107.236 185.039 107.236 185.989V189.999H108.51V185.836C108.51 184.217 107.619 183.369 106.281 183.369C105.297 183.369 104.654 183.825 104.351 184.519H104.27V183.454H103.047V189.999H104.321V186.113ZM110.099 189.999H111.373V186.002C111.373 185.146 112.034 184.528 112.937 184.528C113.201 184.528 113.499 184.575 113.602 184.604V183.386C113.474 183.369 113.222 183.356 113.061 183.356C112.293 183.356 111.637 183.79 111.399 184.494H111.33V183.454H110.099V189.999ZM114.584 189.999H115.859V183.454H114.584V189.999ZM115.228 182.444C115.667 182.444 116.033 182.103 116.033 181.685C116.033 181.268 115.667 180.923 115.228 180.923C114.785 180.923 114.422 181.268 114.422 181.685C114.422 182.103 114.785 182.444 115.228 182.444ZM122.357 185.052C122.093 184.033 121.296 183.369 119.882 183.369C118.403 183.369 117.355 184.148 117.355 185.308C117.355 186.236 117.917 186.854 119.144 187.127L120.252 187.37C120.883 187.511 121.177 187.792 121.177 188.201C121.177 188.708 120.636 189.104 119.801 189.104C119.038 189.104 118.548 188.776 118.394 188.133L117.163 188.32C117.376 189.479 118.339 190.131 119.809 190.131C121.39 190.131 122.485 189.292 122.485 188.107C122.485 187.183 121.897 186.611 120.696 186.334L119.656 186.096C118.936 185.925 118.625 185.683 118.629 185.239C118.625 184.736 119.17 184.379 119.894 184.379C120.687 184.379 121.053 184.817 121.203 185.256L122.357 185.052ZM126.587 190.131C128.015 190.131 129.025 189.428 129.315 188.363L128.109 188.146C127.878 188.763 127.324 189.079 126.6 189.079C125.509 189.079 124.776 188.371 124.742 187.11H129.395V186.658C129.395 184.293 127.981 183.369 126.498 183.369C124.674 183.369 123.472 184.758 123.472 186.769C123.472 188.802 124.657 190.131 126.587 190.131ZM124.746 186.156C124.797 185.227 125.471 184.421 126.506 184.421C127.495 184.421 128.143 185.154 128.147 186.156H124.746ZM135.65 190.144C136.732 190.144 137.342 189.594 137.584 189.104H137.636V189.999H138.88V185.653C138.88 183.748 137.38 183.369 136.34 183.369C135.155 183.369 134.065 183.846 133.638 185.039L134.836 185.312C135.023 184.847 135.501 184.4 136.357 184.4C137.18 184.4 137.602 184.83 137.602 185.572V185.602C137.602 186.066 137.124 186.058 135.948 186.194C134.708 186.339 133.438 186.663 133.438 188.15C133.438 189.437 134.405 190.144 135.65 190.144ZM135.927 189.121C135.207 189.121 134.687 188.798 134.687 188.167C134.687 187.485 135.292 187.242 136.029 187.144C136.442 187.089 137.423 186.978 137.606 186.795V187.638C137.606 188.414 136.988 189.121 135.927 189.121ZM140.457 189.999H141.731V186.002C141.731 185.146 142.392 184.528 143.295 184.528C143.559 184.528 143.858 184.575 143.96 184.604V183.386C143.832 183.369 143.581 183.356 143.419 183.356C142.652 183.356 141.995 183.79 141.757 184.494H141.689V183.454H140.457V189.999ZM147.529 190.131C148.957 190.131 149.967 189.428 150.256 188.363L149.05 188.146C148.82 188.763 148.266 189.079 147.542 189.079C146.451 189.079 145.718 188.371 145.684 187.11H150.337V186.658C150.337 184.293 148.923 183.369 147.44 183.369C145.616 183.369 144.414 184.758 144.414 186.769C144.414 188.802 145.599 190.131 147.529 190.131ZM145.688 186.156C145.739 185.227 146.413 184.421 147.448 184.421C148.437 184.421 149.085 185.154 149.089 186.156H145.688ZM154.687 192.454H155.961V188.981H156.038C156.268 189.398 156.737 190.127 157.93 190.127C159.515 190.127 160.666 188.857 160.666 186.739C160.666 184.617 159.498 183.369 157.917 183.369C156.702 183.369 156.264 184.11 156.038 184.515H155.931V183.454H154.687V192.454ZM155.935 186.727C155.935 185.359 156.532 184.451 157.644 184.451C158.799 184.451 159.379 185.427 159.379 186.727C159.379 188.039 158.782 189.04 157.644 189.04C156.549 189.04 155.935 188.103 155.935 186.727ZM163.247 186.113C163.247 185.069 163.908 184.472 164.815 184.472C165.693 184.472 166.217 185.031 166.217 185.989V189.999H167.492V185.836C167.492 184.204 166.597 183.369 165.25 183.369C164.232 183.369 163.618 183.812 163.311 184.519H163.23V181.272H161.973V189.999H163.247V186.113ZM171.829 190.131C173.674 190.131 174.88 188.781 174.88 186.756C174.88 184.719 173.674 183.369 171.829 183.369C169.984 183.369 168.778 184.719 168.778 186.756C168.778 188.781 169.984 190.131 171.829 190.131ZM171.833 189.062C170.627 189.062 170.065 188.009 170.065 186.752C170.065 185.499 170.627 184.434 171.833 184.434C173.031 184.434 173.593 185.499 173.593 186.752C173.593 188.009 173.031 189.062 171.833 189.062ZM179.238 183.454H177.895V181.886H176.621V183.454H175.662V184.477H176.621V188.342C176.617 189.531 177.525 190.106 178.53 190.084C178.935 190.08 179.208 190.004 179.357 189.948L179.127 188.896C179.042 188.913 178.884 188.951 178.679 188.951C178.266 188.951 177.895 188.815 177.895 188.077V184.477H179.238V183.454ZM183.214 190.131C185.059 190.131 186.265 188.781 186.265 186.756C186.265 184.719 185.059 183.369 183.214 183.369C181.369 183.369 180.163 184.719 180.163 186.756C180.163 188.781 181.369 190.131 183.214 190.131ZM183.218 189.062C182.012 189.062 181.45 188.009 181.45 186.752C181.45 185.499 182.012 184.434 183.218 184.434C184.416 184.434 184.978 185.499 184.978 186.752C184.978 188.009 184.416 189.062 183.218 189.062ZM192.472 185.052C192.208 184.033 191.411 183.369 189.996 183.369C188.518 183.369 187.469 184.148 187.469 185.308C187.469 186.236 188.032 186.854 189.259 187.127L190.367 187.37C190.998 187.511 191.292 187.792 191.292 188.201C191.292 188.708 190.751 189.104 189.915 189.104C189.153 189.104 188.662 188.776 188.509 188.133L187.278 188.32C187.491 189.479 188.454 190.131 189.924 190.131C191.505 190.131 192.6 189.292 192.6 188.107C192.6 187.183 192.012 186.611 190.81 186.334L189.77 186.096C189.05 185.925 188.739 185.683 188.743 185.239C188.739 184.736 189.285 184.379 190.009 184.379C190.802 184.379 191.168 184.817 191.317 185.256L192.472 185.052ZM194.72 190.08C195.185 190.08 195.573 189.701 195.573 189.228C195.573 188.763 195.185 188.38 194.72 188.38C194.252 188.38 193.868 188.763 193.868 189.228C193.868 189.701 194.252 190.08 194.72 190.08Z" fill="white"/>
<defs>
<filter id="filter0_d_1501_38" x="0.339844" y="0.0078125" width="405" height="386.982" filterUnits="userSpaceOnUse" color-interpolation-filters="sRGB">
<feFlood flood-opacity="0" result="BackgroundImageFix"/>
<feColorMatrix in="SourceAlpha" type="matrix" values="0 0 0 0 0 0 0 0 0 0 0 0 0 0 0 0 0 0 127 0" result="hardAlpha"/>
<feMorphology radius="12" operator="erode" in="SourceAlpha" result="effect1_dropShadow_1501_38"/>
<feOffset dy="28"/>
<feGaussianBlur stdDeviation="30"/>
<feColorMatrix type="matrix" values="0 0 0 0 0 0 0 0 0 0 0 0 0 0 0 0 0 0 0.05 0"/>
<feBlend mode="normal" in2="BackgroundImageFix" result="effect1_dropShadow_1501_38"/>
<feBlend mode="normal" in="SourceGraphic" in2="effect1_dropShadow_1501_38" result="shape"/>
</filter>
<filter id="filter1_d_1501_38" x="78.6078" y="75.5014" width="218.013" height="254.77" filterUnits="userSpaceOnUse" color-interpolation-filters="sRGB">
<feFlood flood-opacity="0" result="BackgroundImageFix"/>
<feColorMatrix in="SourceAlpha" type="matrix" values="0 0 0 0 0 0 0 0 0 0 0 0 0 0 0 0 0 0 127 0" result="hardAlpha"/>
<feOffset dy="21.621"/>
<feGaussianBlur stdDeviation="20"/>
<feColorMatrix type="matrix" values="0 0 0 0 0 0 0 0 0 0 0 0 0 0 0 0 0 0 0.1 0"/>
<feBlend mode="normal" in2="BackgroundImageFix" result="effect1_dropShadow_1501_38"/>
<feBlend mode="normal" in="SourceGraphic" in2="effect1_dropShadow_1501_38" result="shape"/>
</filter>
<radialGradient id="paint0_radial_1501_38" cx="0" cy="0" r="1" gradientUnits="userSpaceOnUse" gradientTransform="translate(73.2494 69.6445) scale(23.5214 23.5214)">
<stop offset="0.09" stop-color="#FA8F21"/>
<stop offset="0.78" stop-color="#D82D7E"/>
</radialGradient>
<radialGradient id="paint1_radial_1501_38" cx="0" cy="0" r="1" gradientUnits="userSpaceOnUse" gradientTransform="translate(81.7833 70.4517) scale(18.5381 18.5381)">
<stop offset="0.64" stop-color="#8C3AAA" stop-opacity="0"/>
<stop offset="1" stop-color="#8C3AAA"/>
</radialGradient>
</defs>
</svg>
