<svg width="379" height="372" viewBox="0 0 379 372" fill="none" xmlns="http://www.w3.org/2000/svg">
<g filter="url(#filter0_d_1501_2)">
<rect x="20" y="12.2949" width="306.271" height="339.309" rx="8" fill="white"/>
</g>
<path fill-rule="evenodd" clip-rule="evenodd" d="M298.596 304.278L61.9725 304.278L61.9725 303.385L298.596 303.386L298.596 304.278Z" fill="#EEF0F2"/>
<path fill-rule="evenodd" clip-rule="evenodd" d="M298.596 247.132L61.9725 247.132L61.9725 246.239L298.596 246.239L298.596 247.132Z" fill="#EEF0F2"/>
<path fill-rule="evenodd" clip-rule="evenodd" d="M298.592 190.878L61.9686 190.878L61.9686 189.985L298.592 189.985L298.592 190.878Z" fill="#EEF0F2"/>
<path fill-rule="evenodd" clip-rule="evenodd" d="M298.592 134.624L61.9686 134.624L61.9686 133.731L298.592 133.731L298.592 134.624Z" fill="#EEF0F2"/>
<path d="M41.2386 303.562H46.0256V302.621H42.7514V302.568L44.1967 301.055C45.5284 299.71 45.9084 299.067 45.9084 298.254C45.9084 297.085 44.9567 296.19 43.5859 296.19C42.2259 296.19 41.2315 297.071 41.2315 298.399H42.2791C42.2756 297.618 42.7798 297.107 43.5646 297.107C44.3033 297.107 44.8643 297.561 44.8643 298.286C44.8643 298.928 44.4808 299.39 43.6996 300.217L41.2386 302.767V303.562ZM47.3857 303.562H48.4474V301.627L48.9766 301.098L50.8303 303.562H52.1335L49.7756 300.448L51.9844 298.108H50.7131L48.5398 300.416H48.4474V296.29H47.3857V303.562Z" fill="#333333"/>
<path d="M40.1953 244.996H43.6435V246.416H44.6911V244.996H45.6534V244.065H44.6911V239.143H43.3381L40.1953 244.108V244.996ZM43.6506 244.065H41.3459V244.008L43.5937 240.45H43.6506V244.065ZM46.9052 246.416H47.967V244.481L48.4961 243.952L50.3498 246.416H51.6531L49.2951 243.302L51.5039 240.961H50.2326L48.0593 243.27H47.967V239.143H46.9052V246.416Z" fill="#333333"/>
<path d="M42.8832 190.261C44.4031 190.275 45.4116 189.181 45.408 187.786C45.4116 186.394 44.3995 185.396 43.1388 185.396C42.3718 185.396 41.7077 185.765 41.3349 186.379H41.2816C41.2852 184.728 41.9102 183.748 42.9755 183.748C43.6751 183.748 44.1154 184.174 44.2646 184.778H45.3477C45.1808 183.627 44.2752 182.789 42.9755 182.789C41.2852 182.789 40.2305 184.242 40.2305 186.77C40.2269 189.448 41.5906 190.25 42.8832 190.261ZM42.8796 189.338C42.0344 189.338 41.4165 188.627 41.4165 187.811C41.4201 186.997 42.0664 186.287 42.9045 186.287C43.7354 186.287 44.3462 186.958 44.3427 187.8C44.3462 188.659 43.7106 189.338 42.8796 189.338ZM46.7157 190.161H47.7775V188.226L48.3066 187.697L50.1603 190.161H51.4636L49.1056 187.047L51.3145 184.707H50.0431L47.8699 187.015H47.7775V182.889H46.7157V190.161Z" fill="#333333"/>
<path d="M42.8015 134.008C44.3143 134.008 45.3832 133.148 45.3903 131.969C45.3832 131.053 44.7404 130.282 43.9272 130.137V130.094C44.6339 129.924 45.1133 129.26 45.1204 128.475C45.1133 127.363 44.1332 126.536 42.8015 126.536C41.4556 126.536 40.4755 127.363 40.4826 128.475C40.4755 129.256 40.9549 129.924 41.6758 130.094V130.137C40.8484 130.282 40.2056 131.053 40.2127 131.969C40.2056 133.148 41.2745 134.008 42.8015 134.008ZM42.8015 133.109C41.8924 133.109 41.3171 132.626 41.3242 131.898C41.3171 131.142 41.9421 130.602 42.8015 130.602C43.6467 130.602 44.2717 131.142 44.2788 131.898C44.2717 132.626 43.6999 133.109 42.8015 133.109ZM42.8015 129.725C42.0664 129.725 41.5444 129.26 41.5515 128.567C41.5444 127.885 42.0487 127.434 42.8015 127.434C43.5401 127.434 44.0444 127.885 44.0515 128.567C44.0444 129.26 43.5259 129.725 42.8015 129.725ZM46.6767 133.908H47.7385V131.973L48.2676 131.444L50.1213 133.908H51.4245L49.0666 130.794L51.2754 128.454H50.0041L47.8308 130.762H47.7385V126.635H46.6767V133.908Z" fill="#333333"/>
<path d="M52.0388 82.5847H49.281L45.3045 85.1394V87.7957L49.0467 85.405H49.1404V98.5847H52.0388V82.5847ZM61.9607 98.8035C65.4138 98.8269 67.7342 96.4519 67.7263 93.2878C67.7342 90.2644 65.5779 88.0769 62.7732 88.0769C61.0545 88.0769 59.5388 88.9128 58.7732 90.2878H58.6638C58.6717 86.9207 59.906 84.8738 62.1248 84.8738C63.4998 84.8738 64.4295 85.6707 64.7263 86.8972H67.5779C67.2342 84.3113 65.1482 82.366 62.1248 82.366C58.281 82.366 55.8513 85.5691 55.8513 91.0378C55.8435 96.905 58.8904 98.7878 61.9607 98.8035ZM61.9451 96.4597C60.2342 96.4597 58.9842 95.0457 58.9763 93.3738C58.992 91.6941 60.2888 90.2878 61.9842 90.2878C63.6795 90.2878 64.9217 91.6316 64.9138 93.3503C64.9217 95.1003 63.6404 96.4597 61.9451 96.4597ZM71.4529 98.7566C72.3748 98.7566 73.1638 97.991 73.1717 97.0378C73.1638 96.1003 72.3748 95.3347 71.4529 95.3347C70.4998 95.3347 69.7263 96.1003 69.7342 97.0378C69.7263 97.991 70.4998 98.7566 71.4529 98.7566ZM76.0603 98.5847H87.0291V96.1628H80.0603V96.0535L82.8181 93.2488C85.9275 90.2644 86.7869 88.8113 86.7869 87.0066C86.7869 84.3269 84.6072 82.366 81.3885 82.366C78.2166 82.366 75.9666 84.3347 75.9666 87.3738H78.7244C78.7244 85.741 79.7556 84.7175 81.3494 84.7175C82.8728 84.7175 84.0056 85.6472 84.0056 87.155C84.0056 88.491 83.1931 89.4441 81.615 91.0457L76.0603 96.491V98.5847ZM89.7556 98.5847H92.5838V94.5535L93.615 93.4519L97.2869 98.5847H100.67L95.7478 91.7644L100.396 86.5847H97.0916L92.7791 91.405H92.5838V82.5847H89.7556V98.5847Z" fill="#2B2B2B"/>
<path d="M114.975 89.8574H113.671V96.2665H113.59L109.15 89.8574H107.931V98.5847H109.248V92.1841H109.328L113.765 98.5847H114.975V89.8574ZM119.614 98.7168C121.042 98.7168 122.052 98.0137 122.342 96.9484L121.136 96.731C120.906 97.3489 120.352 97.6643 119.627 97.6643C118.536 97.6643 117.803 96.9569 117.769 95.6955H122.423V95.2438C122.423 92.8787 121.008 91.954 119.525 91.954C117.701 91.954 116.499 93.3432 116.499 95.3546C116.499 97.3873 117.684 98.7168 119.614 98.7168ZM117.773 94.741C117.825 93.812 118.498 93.0066 119.533 93.0066C120.522 93.0066 121.17 93.7395 121.174 94.741H117.773ZM125.244 98.5847H126.539L127.869 93.8589H127.967L129.296 98.5847H130.596L132.518 92.0393H131.201L129.927 96.8248H129.863L128.585 92.0393H127.268L125.981 96.8461H125.917L124.634 92.0393H123.317L125.244 98.5847ZM137.005 98.5847H138.322V94.7793H142.029V93.6501H138.322V90.991H142.417V89.8574H137.005V98.5847ZM146.211 98.7168C148.056 98.7168 149.262 97.366 149.262 95.3418C149.262 93.3049 148.056 91.954 146.211 91.954C144.365 91.954 143.159 93.3049 143.159 95.3418C143.159 97.366 144.365 98.7168 146.211 98.7168ZM146.215 97.6472C145.009 97.6472 144.446 96.5947 144.446 95.3376C144.446 94.0847 145.009 93.0194 146.215 93.0194C147.412 93.0194 147.975 94.0847 147.975 95.3376C147.975 96.5947 147.412 97.6472 146.215 97.6472ZM151.958 89.8574H150.684V98.5847H151.958V89.8574ZM154.946 89.8574H153.672V98.5847H154.946V89.8574ZM159.418 98.7168C161.263 98.7168 162.469 97.366 162.469 95.3418C162.469 93.3049 161.263 91.954 159.418 91.954C157.572 91.954 156.366 93.3049 156.366 95.3418C156.366 97.366 157.572 98.7168 159.418 98.7168ZM159.422 97.6472C158.216 97.6472 157.653 96.5947 157.653 95.3376C157.653 94.0847 158.216 93.0194 159.422 93.0194C160.619 93.0194 161.182 94.0847 161.182 95.3376C161.182 96.5947 160.619 97.6472 159.422 97.6472ZM165.111 98.5847H166.406L167.736 93.8589H167.834L169.163 98.5847H170.463L172.385 92.0393H171.068L169.794 96.8248H169.73L168.452 92.0393H167.135L165.848 96.8461H165.784L164.501 92.0393H163.185L165.111 98.5847ZM176.216 98.7168C177.643 98.7168 178.653 98.0137 178.943 96.9484L177.737 96.731C177.507 97.3489 176.953 97.6643 176.229 97.6643C175.138 97.6643 174.405 96.9569 174.371 95.6955H179.024V95.2438C179.024 92.8787 177.609 91.954 176.126 91.954C174.303 91.954 173.101 93.3432 173.101 95.3546C173.101 97.3873 174.286 98.7168 176.216 98.7168ZM174.375 94.741C174.426 93.812 175.099 93.0066 176.135 93.0066C177.124 93.0066 177.771 93.7395 177.776 94.741H174.375ZM180.438 98.5847H181.712V94.5876C181.712 93.731 182.373 93.1131 183.276 93.1131C183.54 93.1131 183.838 93.16 183.941 93.1898V91.9711C183.813 91.954 183.561 91.9412 183.4 91.9412C182.632 91.9412 181.976 92.3759 181.738 93.079H181.669V92.0393H180.438V98.5847ZM189.948 93.6373C189.684 92.6188 188.887 91.954 187.472 91.954C185.994 91.954 184.945 92.7339 184.945 93.893C184.945 94.8219 185.508 95.4398 186.735 95.7126L187.843 95.9555C188.474 96.0961 188.768 96.3773 188.768 96.7864C188.768 97.2935 188.227 97.6898 187.391 97.6898C186.629 97.6898 186.138 97.3617 185.985 96.7182L184.754 96.9057C184.967 98.0648 185.93 98.7168 187.4 98.7168C188.981 98.7168 190.076 97.8773 190.076 96.6927C190.076 95.768 189.488 95.1969 188.286 94.9199L187.246 94.6813C186.526 94.5109 186.215 94.268 186.219 93.8248C186.215 93.3219 186.761 92.964 187.485 92.964C188.278 92.964 188.644 93.4029 188.793 93.8418L189.948 93.6373Z" fill="#666666"/>
<path d="M73.1226 60.2261H74.6588V55.7864H78.9841V54.469H74.6588V51.3667H79.4365V50.0443H73.1226V60.2261ZM83.8625 60.3802C86.0152 60.3802 87.4221 58.8042 87.4221 56.4427C87.4221 54.0663 86.0152 52.4903 83.8625 52.4903C81.7098 52.4903 80.3028 54.0663 80.3028 56.4427C80.3028 58.8042 81.7098 60.3802 83.8625 60.3802ZM83.8674 59.1323C82.4605 59.1323 81.8042 57.9043 81.8042 56.4377C81.8042 54.9761 82.4605 53.7332 83.8674 53.7332C85.2644 53.7332 85.9207 54.9761 85.9207 56.4377C85.9207 57.9043 85.2644 59.1323 83.8674 59.1323ZM90.5679 50.0443H89.0814V60.2261H90.5679V50.0443ZM94.0542 50.0443H92.5677V60.2261H94.0542V50.0443ZM99.2707 60.3802C101.423 60.3802 102.83 58.8042 102.83 56.4427C102.83 54.0663 101.423 52.4903 99.2707 52.4903C97.118 52.4903 95.711 54.0663 95.711 56.4427C95.711 58.8042 97.118 60.3802 99.2707 60.3802ZM99.2756 59.1323C97.8687 59.1323 97.2124 57.9043 97.2124 56.4377C97.2124 54.9761 97.8687 53.7332 99.2756 53.7332C100.673 53.7332 101.329 54.9761 101.329 56.4377C101.329 57.9043 100.673 59.1323 99.2756 59.1323ZM105.913 60.2261H107.424L108.975 54.7126H109.09L110.641 60.2261H112.157L114.399 52.5897H112.863L111.376 58.1728H111.302L109.81 52.5897H108.274L106.773 58.1977H106.698L105.202 52.5897H103.666L105.913 60.2261ZM118.869 60.3802C120.534 60.3802 121.712 59.5599 122.05 58.317L120.644 58.0634C120.375 58.7843 119.729 59.1522 118.884 59.1522C117.611 59.1522 116.756 58.3269 116.716 56.8553H122.145V56.3283C122.145 53.5691 120.494 52.4903 118.764 52.4903C116.636 52.4903 115.234 54.111 115.234 56.4576C115.234 58.8291 116.617 60.3802 118.869 60.3802ZM116.721 55.7417C116.781 54.6579 117.566 53.7183 118.774 53.7183C119.928 53.7183 120.683 54.5734 120.688 55.7417H116.721ZM123.794 60.2261H125.281V55.5627C125.281 54.5634 126.051 53.8426 127.105 53.8426C127.414 53.8426 127.762 53.8972 127.881 53.932V52.5102C127.732 52.4903 127.438 52.4754 127.25 52.4754C126.355 52.4754 125.589 52.9825 125.311 53.8028H125.231V52.5897H123.794V60.2261ZM139.882 53.2609H141.458C141.115 51.2772 139.42 49.9051 137.223 49.9051C134.588 49.9051 132.664 51.8887 132.664 55.1401C132.664 58.3617 134.533 60.3653 137.292 60.3653C139.763 60.3653 141.528 58.7445 141.528 56.1742V55.0158H137.526V56.2836H140.041C140.007 57.9242 138.923 58.9633 137.292 58.9633C135.497 58.9633 134.19 57.606 134.19 55.1302C134.19 52.6643 135.507 51.307 137.232 51.307C138.585 51.307 139.5 52.0528 139.882 53.2609ZM143.359 60.2261H144.845V55.5627C144.845 54.5634 145.616 53.8426 146.67 53.8426C146.978 53.8426 147.326 53.8972 147.445 53.932V52.5102C147.296 52.4903 147.003 52.4754 146.814 52.4754C145.919 52.4754 145.153 52.9825 144.875 53.8028H144.796V52.5897H143.359V60.2261ZM151.675 60.3802C153.828 60.3802 155.235 58.8042 155.235 56.4427C155.235 54.0663 153.828 52.4903 151.675 52.4903C149.522 52.4903 148.115 54.0663 148.115 56.4427C148.115 58.8042 149.522 60.3802 151.675 60.3802ZM151.68 59.1323C150.273 59.1323 149.617 57.9043 149.617 56.4377C149.617 54.9761 150.273 53.7332 151.68 53.7332C153.077 53.7332 153.733 54.9761 153.733 56.4377C153.733 57.9043 153.077 59.1323 151.68 59.1323ZM158.317 60.2261H159.828L161.379 54.7126H161.494L163.045 60.2261H164.561L166.804 52.5897H165.267L163.781 58.1728H163.706L162.215 52.5897H160.679L159.177 58.1977H159.103L157.606 52.5897H156.07L158.317 60.2261ZM171.779 52.5897H170.213V50.7602H168.726V52.5897H167.608V53.7829H168.726V58.2921C168.721 59.6792 169.78 60.3504 170.954 60.3255C171.426 60.3205 171.744 60.231 171.918 60.1664L171.65 58.9384C171.55 58.9583 171.366 59.0031 171.128 59.0031C170.645 59.0031 170.213 58.844 170.213 57.9839V53.7829H171.779V52.5897ZM175.074 55.692C175.074 54.4739 175.844 53.7779 176.903 53.7779C177.927 53.7779 178.539 54.4292 178.539 55.5478V60.2261H180.025V55.3688C180.025 53.4647 178.981 52.4903 177.41 52.4903C176.222 52.4903 175.506 53.0073 175.148 53.8326H175.054V50.0443H173.587V60.2261H175.074V55.692Z" fill="#333333"/>
<path d="M50.0627 55.156C50.0627 54.5673 50.2373 53.9918 50.5644 53.5023C50.8915 53.0128 51.3564 52.6313 51.9003 52.406C52.4442 52.1807 53.0427 52.1217 53.6201 52.2366C54.1975 52.3514 54.7279 52.6349 55.1442 53.0512C55.5605 53.4675 55.844 53.9979 55.9589 54.5753C56.0737 55.1527 56.0148 55.7512 55.7895 56.2952C55.5642 56.8391 55.1826 57.304 54.6931 57.631C54.2036 57.9581 53.6281 58.1327 53.0394 58.1327C52.2499 58.1327 51.4928 57.8191 50.9346 57.2608C50.3764 56.7026 50.0627 55.9455 50.0627 55.156ZM48.4534 55.156C48.4534 56.0629 48.7223 56.9495 49.2262 57.7035C49.73 58.4576 50.4461 59.0453 51.284 59.3924C52.1218 59.7395 53.0438 59.8303 53.9333 59.6534C54.8227 59.4765 55.6398 59.0399 56.2811 58.3986C56.9224 57.7574 57.3592 56.9404 57.5361 56.0509C57.7131 55.1615 57.6224 54.2395 57.2754 53.4016C56.9284 52.5637 56.3408 51.8475 55.5868 51.3436C54.8328 50.8397 53.9463 50.5707 53.0394 50.5706C52.4372 50.5706 51.8409 50.6892 51.2846 50.9196C50.7283 51.15 50.2227 51.4878 49.7969 51.9136C49.3711 52.3394 49.0334 52.8449 48.8029 53.4012C48.5725 53.9576 48.4539 54.5539 48.4539 55.156H48.4534ZM56.7339 50.3888C56.7339 50.6008 56.7967 50.808 56.9144 50.9842C57.032 51.1605 57.1994 51.2979 57.3951 51.3791C57.5909 51.4602 57.8064 51.4815 58.0143 51.4403C58.2221 51.399 58.4131 51.297 58.563 51.1472C58.7129 50.9974 58.8151 50.8064 58.8565 50.5986C58.8979 50.3907 58.8767 50.1753 58.7957 49.9794C58.7147 49.7836 58.5774 49.6162 58.4012 49.4984C58.225 49.3806 58.0178 49.3177 57.8059 49.3176C57.5218 49.3177 57.2494 49.4306 57.0484 49.6315C56.8475 49.8323 56.7345 50.1047 56.7343 50.3888H56.7339ZM49.4324 62.4248C48.8661 62.4184 48.3051 62.3145 47.774 62.1177C47.3862 61.9744 47.0353 61.7461 46.7469 61.4497C46.4501 61.162 46.2218 60.8112 46.0789 60.4233C45.8818 59.8923 45.7777 59.3313 45.7711 58.765C45.7279 57.8236 45.7186 57.5409 45.7186 55.1562C45.7186 52.7716 45.7279 52.4895 45.7711 51.5475C45.7782 50.9812 45.8821 50.4203 46.0782 49.8891C46.2216 49.5012 46.4498 49.1503 46.7462 48.862C47.0341 48.565 47.3851 48.3367 47.7733 48.194C48.3046 47.997 48.8658 47.893 49.4324 47.8867C50.3737 47.8434 50.6565 47.8342 53.0394 47.8342C55.4223 47.8342 55.7061 47.8434 56.6482 47.8867C57.2144 47.8938 57.7753 47.9977 58.3065 48.1938C58.6945 48.3369 59.0455 48.5652 59.3336 48.8618C59.6303 49.15 59.8585 49.5009 60.0016 49.8889C60.1985 50.42 60.3024 50.981 60.3087 51.5473C60.352 52.4893 60.3613 52.7714 60.3613 55.156C60.3613 57.5407 60.3527 57.8228 60.3087 58.7648C60.3019 59.3311 60.198 59.892 60.0016 60.4231C59.853 60.8083 59.6254 61.158 59.3334 61.4498C59.0415 61.7416 58.6917 61.9691 58.3065 62.1176C57.7755 62.3144 57.2145 62.4183 56.6482 62.4247C55.7068 62.4679 55.424 62.4772 53.0394 62.4772C50.6547 62.4772 50.3727 62.4686 49.4324 62.4247V62.4248ZM49.3578 46.2802C48.617 46.2948 47.8841 46.4351 47.1903 46.695C46.5943 46.9192 46.0545 47.2707 45.6083 47.7249C45.1536 48.1707 44.802 48.7106 44.5782 49.3067C44.3183 50.0006 44.1781 50.7336 44.1635 51.4744C44.1196 52.4266 44.1094 52.7309 44.1094 55.156C44.1094 57.5811 44.1196 57.8855 44.1635 58.8376C44.1782 59.5784 44.3185 60.3113 44.5783 61.0052C44.8022 61.6013 45.1537 62.1413 45.6083 62.5872C46.0546 63.0412 46.5944 63.3926 47.1901 63.6173C47.884 63.8771 48.6169 64.0173 49.3576 64.0321C50.3103 64.0753 50.6141 64.0862 53.0392 64.0862C55.4643 64.0862 55.7686 64.076 56.7208 64.0321C57.4616 64.0174 58.1945 63.8771 58.8883 63.6173C59.4817 63.3879 60.0206 63.037 60.4704 62.5872C60.9202 62.1374 61.2711 61.5985 61.5004 61.0052C61.7607 60.3114 61.9009 59.5784 61.9153 58.8376C61.9585 57.8848 61.9678 57.5811 61.9678 55.156C61.9678 52.7309 61.9576 52.4266 61.9153 51.4744C61.9006 50.7337 61.7604 50.0007 61.5004 49.3069C61.2759 48.7112 60.9245 48.1713 60.4705 47.7249C60.0248 47.2705 59.4852 46.9189 58.8894 46.6948C58.1955 46.4348 57.4625 46.2946 56.7217 46.2802C55.7697 46.2369 55.4652 46.2261 53.0394 46.2261C50.6136 46.2261 50.3096 46.2362 49.3571 46.2802" fill="url(#paint0_radial_1501_2)"/>
<path d="M50.0627 55.156C50.0627 54.5673 50.2373 53.9918 50.5644 53.5023C50.8915 53.0128 51.3564 52.6313 51.9003 52.406C52.4442 52.1807 53.0427 52.1217 53.6201 52.2366C54.1975 52.3514 54.7279 52.6349 55.1442 53.0512C55.5605 53.4675 55.844 53.9979 55.9589 54.5753C56.0737 55.1527 56.0148 55.7512 55.7895 56.2952C55.5642 56.8391 55.1826 57.304 54.6931 57.631C54.2036 57.9581 53.6281 58.1327 53.0394 58.1327C52.2499 58.1327 51.4928 57.8191 50.9346 57.2608C50.3764 56.7026 50.0627 55.9455 50.0627 55.156ZM48.4534 55.156C48.4534 56.0629 48.7223 56.9495 49.2262 57.7035C49.73 58.4576 50.4461 59.0453 51.284 59.3924C52.1218 59.7395 53.0438 59.8303 53.9333 59.6534C54.8227 59.4765 55.6398 59.0399 56.2811 58.3986C56.9224 57.7574 57.3592 56.9404 57.5361 56.0509C57.7131 55.1615 57.6224 54.2395 57.2754 53.4016C56.9284 52.5637 56.3408 51.8475 55.5868 51.3436C54.8328 50.8397 53.9463 50.5707 53.0394 50.5706C52.4372 50.5706 51.8409 50.6892 51.2846 50.9196C50.7283 51.15 50.2227 51.4878 49.7969 51.9136C49.3711 52.3394 49.0334 52.8449 48.8029 53.4012C48.5725 53.9576 48.4539 54.5539 48.4539 55.156H48.4534ZM56.7339 50.3888C56.7339 50.6008 56.7967 50.808 56.9144 50.9842C57.032 51.1605 57.1994 51.2979 57.3951 51.3791C57.5909 51.4602 57.8064 51.4815 58.0143 51.4403C58.2221 51.399 58.4131 51.297 58.563 51.1472C58.7129 50.9974 58.8151 50.8064 58.8565 50.5986C58.8979 50.3907 58.8767 50.1753 58.7957 49.9794C58.7147 49.7836 58.5774 49.6162 58.4012 49.4984C58.225 49.3806 58.0178 49.3177 57.8059 49.3176C57.5218 49.3177 57.2494 49.4306 57.0484 49.6315C56.8475 49.8323 56.7345 50.1047 56.7343 50.3888H56.7339ZM49.4324 62.4248C48.8661 62.4184 48.3051 62.3145 47.774 62.1177C47.3862 61.9744 47.0353 61.7461 46.7469 61.4497C46.4501 61.162 46.2218 60.8112 46.0789 60.4233C45.8818 59.8923 45.7777 59.3313 45.7711 58.765C45.7279 57.8236 45.7186 57.5409 45.7186 55.1562C45.7186 52.7716 45.7279 52.4895 45.7711 51.5475C45.7782 50.9812 45.8821 50.4203 46.0782 49.8891C46.2216 49.5012 46.4498 49.1503 46.7462 48.862C47.0341 48.565 47.3851 48.3367 47.7733 48.194C48.3046 47.997 48.8658 47.893 49.4324 47.8867C50.3737 47.8434 50.6565 47.8342 53.0394 47.8342C55.4223 47.8342 55.7061 47.8434 56.6482 47.8867C57.2144 47.8938 57.7753 47.9977 58.3065 48.1938C58.6945 48.3369 59.0455 48.5652 59.3336 48.8618C59.6303 49.15 59.8585 49.5009 60.0016 49.8889C60.1985 50.42 60.3024 50.981 60.3087 51.5473C60.352 52.4893 60.3613 52.7714 60.3613 55.156C60.3613 57.5407 60.3527 57.8228 60.3087 58.7648C60.3019 59.3311 60.198 59.892 60.0016 60.4231C59.853 60.8083 59.6254 61.158 59.3334 61.4498C59.0415 61.7416 58.6917 61.9691 58.3065 62.1176C57.7755 62.3144 57.2145 62.4183 56.6482 62.4247C55.7068 62.4679 55.424 62.4772 53.0394 62.4772C50.6547 62.4772 50.3727 62.4688 49.4324 62.4248ZM49.3578 46.2802C48.617 46.2948 47.8841 46.4351 47.1903 46.695C46.5943 46.9192 46.0545 47.2707 45.6083 47.7249C45.1536 48.1707 44.802 48.7106 44.5782 49.3067C44.3183 50.0006 44.1781 50.7336 44.1635 51.4744C44.1196 52.4266 44.1094 52.7309 44.1094 55.156C44.1094 57.5811 44.1196 57.8855 44.1635 58.8376C44.1782 59.5784 44.3185 60.3113 44.5783 61.0052C44.8022 61.6013 45.1537 62.1413 45.6083 62.5872C46.0546 63.0412 46.5944 63.3926 47.1901 63.6173C47.884 63.8771 48.6169 64.0173 49.3576 64.0321C50.3103 64.0753 50.6141 64.0862 53.0392 64.0862C55.4643 64.0862 55.7686 64.076 56.7208 64.0321C57.4616 64.0174 58.1945 63.8771 58.8883 63.6173C59.4817 63.3879 60.0206 63.037 60.4704 62.5872C60.9202 62.1374 61.2711 61.5985 61.5004 61.0052C61.7607 60.3114 61.9009 59.5784 61.9153 58.8376C61.9585 57.8848 61.9678 57.5811 61.9678 55.156C61.9678 52.7309 61.9576 52.4266 61.9153 51.4744C61.9006 50.7337 61.7604 50.0007 61.5004 49.3069C61.2759 48.7112 60.9245 48.1713 60.4705 47.7249C60.0248 47.2705 59.4852 46.9189 58.8894 46.6948C58.1955 46.4348 57.4625 46.2946 56.7217 46.2802C55.7697 46.2369 55.4652 46.2261 53.0394 46.2261C50.6136 46.2261 50.3096 46.2362 49.3571 46.2802" fill="url(#paint1_radial_1501_2)"/>
<path d="M251.803 48.0115H241.802C241.234 48.0115 240.689 48.2373 240.287 48.6391C239.885 49.041 239.659 49.5861 239.659 50.1545V60.1551C239.659 60.7235 239.885 61.2686 240.287 61.6705C240.689 62.0724 241.234 62.2982 241.802 62.2982H251.803C252.371 62.2982 252.916 62.0724 253.318 61.6705C253.72 61.2686 253.946 60.7235 253.946 60.1551V50.1545C253.946 49.5861 253.72 49.041 253.318 48.6391C252.916 48.2373 252.371 48.0115 251.803 48.0115ZM251.803 49.4401C251.992 49.4401 252.174 49.5154 252.308 49.6494C252.442 49.7833 252.517 49.965 252.517 50.1545V54.4405H247.517V49.4401H251.803ZM241.088 50.1545C241.088 49.965 241.163 49.7833 241.297 49.6494C241.431 49.5154 241.613 49.4401 241.802 49.4401H246.088V54.4405H241.088V50.1545ZM241.802 60.8695C241.613 60.8695 241.431 60.7942 241.297 60.6603C241.163 60.5263 241.088 60.3446 241.088 60.1551V55.8691H246.088V60.8695H241.802ZM252.517 60.1551C252.517 60.3446 252.442 60.5263 252.308 60.6603C252.174 60.7942 251.992 60.8695 251.803 60.8695H247.517V55.8691H252.517V60.1551Z" fill="#999999"/>
<circle cx="246.801" cy="55.1546" r="16.519" stroke="#EEF0F2" stroke-width="0.892917"/>
<path d="M286.776 48.7251C286.776 48.3306 286.469 48.0107 286.09 48.0107C285.71 48.0107 285.403 48.3306 285.403 48.7251V56.0012L284.102 54.649C283.834 54.37 283.399 54.37 283.131 54.649C282.863 54.9279 282.863 55.3802 283.131 55.6592L285.604 58.2308C285.677 58.3069 285.763 58.3623 285.854 58.3969C285.927 58.4248 286.007 58.44 286.09 58.44C286.197 58.44 286.298 58.4145 286.389 58.3689C286.43 58.3479 286.47 58.3223 286.508 58.292C286.534 58.2714 286.558 58.2489 286.581 58.2247L289.048 55.6592C289.316 55.3802 289.316 54.9279 289.048 54.649C288.78 54.37 288.345 54.37 288.076 54.649L286.776 56.0011V48.7251Z" fill="#999999"/>
<path d="M280.526 57.6542C280.905 57.6542 281.213 57.9741 281.213 58.3686V60.2973C281.213 60.4488 281.271 60.5942 281.374 60.7014C281.477 60.8085 281.617 60.8688 281.762 60.8688H290.417C290.562 60.8688 290.702 60.8085 290.805 60.7014C290.908 60.5942 290.966 60.4488 290.966 60.2973V58.3686C290.966 57.9741 291.274 57.6542 291.653 57.6542C292.032 57.6542 292.34 57.9741 292.34 58.3686V60.2973C292.34 60.8278 292.137 61.3365 291.777 61.7116C291.416 62.0867 290.927 62.2974 290.417 62.2974H281.762C281.252 62.2974 280.763 62.0867 280.402 61.7116C280.042 61.3365 279.839 60.8278 279.839 60.2973V58.3686C279.839 57.9741 280.147 57.6542 280.526 57.6542Z" fill="#999999"/>
<circle cx="286.09" cy="55.1539" r="16.519" stroke="#EEF0F2" stroke-width="0.892917"/>
<path d="M76.2548 228.827C76.2548 227.101 77.654 225.702 79.38 225.702V225.702C81.106 225.702 82.5052 227.101 82.5052 228.827V303.385H76.2548V228.827Z" fill="#5F6DFF"/>
<path d="M283.411 157.393C283.411 155.667 284.81 154.268 286.536 154.268V154.268C288.262 154.268 289.661 155.667 289.661 157.393V303.385H283.411V157.393Z" fill="#5F6DFF"/>
<path d="M257.516 235.078C257.516 233.352 258.916 231.953 260.642 231.953V231.953C262.368 231.953 263.767 233.352 263.767 235.078V303.387H257.516V235.078Z" fill="#5F6DFF"/>
<path d="M231.622 178.823C231.622 177.097 233.021 175.698 234.747 175.698V175.698C236.473 175.698 237.872 177.097 237.872 178.823V303.385H231.622V178.823Z" fill="#5F6DFF"/>
<path d="M205.727 194.004C205.727 192.278 207.127 190.879 208.853 190.879V190.879C210.579 190.879 211.978 192.278 211.978 194.004V303.386H205.727V194.004Z" fill="#5F6DFF"/>
<path d="M179.833 228.827C179.833 227.101 181.233 225.701 182.959 225.701V225.701C184.685 225.701 186.084 227.101 186.084 228.827V303.385H179.833V228.827Z" fill="#5F6DFF"/>
<path d="M153.939 236.864C153.939 235.138 155.338 233.739 157.064 233.739V233.739C158.79 233.739 160.189 235.138 160.189 236.864V303.386H153.939V236.864Z" fill="#5F6DFF"/>
<path d="M128.043 155.608C128.043 153.882 129.443 152.482 131.169 152.482V152.482C132.895 152.482 134.294 153.882 134.294 155.608V303.385H128.043V155.608Z" fill="#5F6DFF"/>
<path d="M102.153 260.078C102.153 258.352 103.552 256.953 105.278 256.953V256.953C107.004 256.953 108.404 258.352 108.404 260.078V303.385H102.153V260.078Z" fill="#5F6DFF"/>
<defs>
<filter id="filter0_d_1501_2" x="-32" y="0.294922" width="410.271" height="443.309" filterUnits="userSpaceOnUse" color-interpolation-filters="sRGB">
<feFlood flood-opacity="0" result="BackgroundImageFix"/>
<feColorMatrix in="SourceAlpha" type="matrix" values="0 0 0 0 0 0 0 0 0 0 0 0 0 0 0 0 0 0 127 0" result="hardAlpha"/>
<feMorphology radius="18" operator="erode" in="SourceAlpha" result="effect1_dropShadow_1501_2"/>
<feOffset dy="40"/>
<feGaussianBlur stdDeviation="35"/>
<feColorMatrix type="matrix" values="0 0 0 0 0 0 0 0 0 0 0 0 0 0 0 0 0 0 0.1 0"/>
<feBlend mode="normal" in2="BackgroundImageFix" result="effect1_dropShadow_1501_2"/>
<feBlend mode="normal" in="SourceGraphic" in2="effect1_dropShadow_1501_2" result="shape"/>
</filter>
<radialGradient id="paint0_radial_1501_2" cx="0" cy="0" r="1" gradientUnits="userSpaceOnUse" gradientTransform="translate(46.4822 64.1704) scale(23.3137)">
<stop offset="0.09" stop-color="#FA8F21"/>
<stop offset="0.78" stop-color="#D82D7E"/>
</radialGradient>
<radialGradient id="paint1_radial_1501_2" cx="0" cy="0" r="1" gradientUnits="userSpaceOnUse" gradientTransform="translate(54.9408 64.9704) scale(18.3744)">
<stop offset="0.64" stop-color="#8C3AAA" stop-opacity="0"/>
<stop offset="1" stop-color="#8C3AAA"/>
</radialGradient>
</defs>
</svg>
