<svg width="189" height="218" viewBox="0 0 189 218" fill="none" xmlns="http://www.w3.org/2000/svg">
<g opacity="0.2" filter="url(#filter0_b_1501_60)">
<rect x="0.339844" width="188" height="218" rx="8" fill="#B7094C"/>
</g>
<rect x="17.3405" y="107.87" width="155" height="95" rx="8" fill="#FBFBFB"/>
<path d="M54.0154 128.817L57.7093 135.002V138.999H59.2406V135.002L62.9344 128.817H61.1894L58.5296 133.446H58.4202L55.7604 128.817H54.0154ZM66.2381 139.153C68.3908 139.153 69.7977 137.577 69.7977 135.216C69.7977 132.839 68.3908 131.263 66.2381 131.263C64.0854 131.263 62.6784 132.839 62.6784 135.216C62.6784 137.577 64.0854 139.153 66.2381 139.153ZM66.243 137.906C64.8361 137.906 64.1798 136.678 64.1798 135.211C64.1798 133.749 64.8361 132.506 66.243 132.506C67.6401 132.506 68.2963 133.749 68.2963 135.211C68.2963 136.678 67.6401 137.906 66.243 137.906ZM76.2944 135.832C76.2993 137.13 75.3348 137.746 74.4996 137.746C73.5799 137.746 72.9435 137.08 72.9435 136.041V131.363H71.457V136.22C71.457 138.114 72.4961 139.099 73.9627 139.099C75.1111 139.099 75.8917 138.492 76.2446 137.677H76.3242V138.999H77.7858V131.363H76.2944V135.832ZM79.7832 138.999H81.2697V134.336C81.2697 133.337 82.0403 132.616 83.0942 132.616C83.4025 132.616 83.7505 132.67 83.8698 132.705V131.283C83.7207 131.263 83.4273 131.249 83.2384 131.249C82.3435 131.249 81.5779 131.756 81.2995 132.576H81.22V131.363H79.7832V138.999ZM95.8712 132.034H97.4472C97.1042 130.05 95.4089 128.678 93.2114 128.678C90.5765 128.678 88.6525 130.662 88.6525 133.913C88.6525 137.135 90.5218 139.138 93.281 139.138C95.7519 139.138 97.5168 137.518 97.5168 134.947V133.789H93.5147V135.057H96.0303C95.9955 136.697 94.9117 137.736 93.281 137.736C91.4863 137.736 90.1788 136.379 90.1788 133.903C90.1788 131.437 91.4962 130.08 93.2214 130.08C94.5736 130.08 95.4884 130.826 95.8712 132.034ZM99.3476 138.999H100.834V134.336C100.834 133.337 101.605 132.616 102.659 132.616C102.967 132.616 103.315 132.67 103.434 132.705V131.283C103.285 131.263 102.992 131.249 102.803 131.249C101.908 131.249 101.142 131.756 100.864 132.576H100.784V131.363H99.3476V138.999ZM107.664 139.153C109.817 139.153 111.224 137.577 111.224 135.216C111.224 132.839 109.817 131.263 107.664 131.263C105.511 131.263 104.104 132.839 104.104 135.216C104.104 137.577 105.511 139.153 107.664 139.153ZM107.669 137.906C106.262 137.906 105.606 136.678 105.606 135.211C105.606 133.749 106.262 132.506 107.669 132.506C109.066 132.506 109.722 133.749 109.722 135.211C109.722 136.678 109.066 137.906 107.669 137.906ZM114.306 138.999H115.817L117.368 133.486H117.483L119.034 138.999H120.55L122.792 131.363H121.256L119.77 136.946H119.695L118.204 131.363H116.667L115.166 136.971H115.091L113.595 131.363H112.059L114.306 138.999ZM127.768 131.363H126.202V129.533H124.715V131.363H123.597V132.556H124.715V137.065C124.71 138.452 125.769 139.124 126.942 139.099C127.415 139.094 127.733 139.004 127.907 138.94L127.638 137.712C127.539 137.732 127.355 137.776 127.116 137.776C126.634 137.776 126.202 137.617 126.202 136.757V132.556H127.768V131.363ZM131.063 134.465C131.063 133.247 131.833 132.551 132.892 132.551C133.916 132.551 134.528 133.202 134.528 134.321V138.999H136.014V134.142C136.014 132.238 134.97 131.263 133.399 131.263C132.211 131.263 131.495 131.781 131.137 132.606H131.043V128.817H129.576V138.999H131.063V134.465Z" fill="#404040"/>
<path d="M59.5252 176.091C64.4257 176.091 67.9307 173.395 67.9201 169.667C67.9307 166.95 66.2049 165.011 62.9982 164.606V164.436C65.4378 163.999 67.1211 162.273 67.1104 159.823C67.1211 156.382 64.1061 153.676 59.5891 153.676C55.1147 153.676 51.7482 156.296 51.6843 160.068H56.1054C56.1587 158.406 57.6821 157.33 59.5678 157.33C61.4321 157.33 62.6786 158.459 62.6679 160.1C62.6786 161.815 61.2191 162.976 59.1203 162.976H57.0855V166.364H59.1203C61.5919 166.364 63.1367 167.6 63.126 169.358C63.1367 171.094 61.6452 172.287 59.5358 172.287C57.501 172.287 55.9776 171.222 55.8924 169.624H51.2475C51.322 173.438 54.7311 176.091 59.5252 176.091ZM75.5958 172.809H71.8458L71.7926 174.002C71.6647 176.9 70.8338 179.872 70.5248 181.119H73.4652C73.9765 179.83 75.191 176.804 75.4787 173.981L75.5958 172.809ZM87.3492 176.272C92.8357 176.272 96.1489 172.096 96.1596 164.904C96.1702 157.767 92.8144 153.676 87.3492 153.676C81.8734 153.676 78.5495 157.756 78.5388 164.904C78.5175 172.074 81.8521 176.261 87.3492 176.272ZM87.3492 172.447C84.8457 172.447 83.2263 169.933 83.237 164.904C83.2477 159.951 84.8563 157.458 87.3492 157.458C89.8315 157.458 91.4508 159.951 91.4508 164.904C91.4614 169.933 89.8421 172.447 87.3492 172.447ZM108.004 176.272C113.49 176.272 116.803 172.096 116.814 164.904C116.825 157.767 113.469 153.676 108.004 153.676C102.528 153.676 99.2038 157.756 99.1931 164.904C99.1718 172.074 102.506 176.261 108.004 176.272ZM108.004 172.447C105.5 172.447 103.881 169.933 103.891 164.904C103.902 159.951 105.511 157.458 108.004 157.458C110.486 157.458 112.105 159.951 112.105 164.904C112.116 169.933 110.496 172.447 108.004 172.447ZM128.658 176.272C134.144 176.272 137.458 172.096 137.468 164.904C137.479 157.767 134.123 153.676 128.658 153.676C123.182 153.676 119.858 157.756 119.847 164.904C119.826 172.074 123.161 176.261 128.658 176.272ZM128.658 172.447C126.154 172.447 124.535 169.933 124.546 164.904C124.556 159.951 126.165 157.458 128.658 157.458C131.14 157.458 132.759 159.951 132.759 164.904C132.77 169.933 131.151 172.447 128.658 172.447Z" fill="#FF4D4A"/>
<path opacity="0.96" d="M43.8358 51L45.036 47.4134H50.5048L51.7122 51H54.5247L49.3968 36.4545H46.144L41.0233 51H43.8358ZM45.7463 45.2969L47.7136 39.4375H47.8272L49.7946 45.2969H45.7463ZM56.3269 51H58.8979V44.3665C58.8979 43.0241 59.7928 42.1151 60.9007 42.1151C61.9874 42.1151 62.7331 42.8466 62.7331 43.9688V51H65.2544V44.196C65.2544 42.9673 65.986 42.1151 67.2289 42.1151C68.2658 42.1151 69.0897 42.7259 69.0897 44.0753V51H71.6678V43.6776C71.6678 41.2415 70.2615 39.9489 68.2587 39.9489C66.6749 39.9489 65.4675 40.7301 64.9846 41.9446H64.8709C64.4519 40.7088 63.3936 39.9489 61.9235 39.9489C60.4604 39.9489 59.3667 40.7017 58.9121 41.9446H58.7843V40.0909H56.3269V51ZM77.4153 51.2202C79.127 51.2202 80.1497 50.4176 80.6184 49.5014H80.7037V51H83.1752V43.6989C83.1752 40.8153 80.8244 39.9489 78.7434 39.9489C76.4494 39.9489 74.688 40.9716 74.1199 42.9602L76.5204 43.3011C76.7761 42.5554 77.5005 41.9162 78.7576 41.9162C79.9508 41.9162 80.6042 42.527 80.6042 43.5994V43.642C80.6042 44.3807 79.8301 44.4162 77.9054 44.6222C75.7889 44.8494 73.7647 45.4815 73.7647 47.9389C73.7647 50.0838 75.3343 51.2202 77.4153 51.2202ZM78.0829 49.331C77.0105 49.331 76.2434 48.8409 76.2434 47.8963C76.2434 46.9091 77.1028 46.4972 78.2534 46.3338C78.9281 46.2415 80.2775 46.071 80.6113 45.8011V47.0866C80.6113 48.3011 79.6312 49.331 78.0829 49.331ZM88.3315 44.608C88.3315 43.0312 89.2832 42.1222 90.6397 42.1222C91.9679 42.1222 92.7633 42.9957 92.7633 44.4517V51H95.3343V44.054C95.3414 41.4403 93.85 39.9489 91.5985 39.9489C89.965 39.9489 88.8429 40.7301 88.3457 41.9446H88.2179V40.0909H85.7605V51H88.3315V44.608ZM101.996 51.1918C103.871 51.1918 104.716 50.0767 105.121 49.2812H105.278V51H107.806V36.4545H105.228V41.8949H105.121C104.731 41.1065 103.928 39.9489 102.003 39.9489C99.4821 39.9489 97.5005 41.9233 97.5005 45.5597C97.5005 49.1534 99.4252 51.1918 101.996 51.1918ZM102.714 49.0824C101.016 49.0824 100.121 47.5909 100.121 45.5455C100.121 43.5142 101.002 42.0582 102.714 42.0582C104.368 42.0582 105.278 43.429 105.278 45.5455C105.278 47.6619 104.354 49.0824 102.714 49.0824ZM113.685 51.2202C115.396 51.2202 116.419 50.4176 116.888 49.5014H116.973V51H119.445V43.6989C119.445 40.8153 117.094 39.9489 115.013 39.9489C112.719 39.9489 110.958 40.9716 110.389 42.9602L112.79 43.3011C113.046 42.5554 113.77 41.9162 115.027 41.9162C116.22 41.9162 116.874 42.527 116.874 43.5994V43.642C116.874 44.3807 116.1 44.4162 114.175 44.6222C112.058 44.8494 110.034 45.4815 110.034 47.9389C110.034 50.0838 111.604 51.2202 113.685 51.2202ZM114.352 49.331C113.28 49.331 112.513 48.8409 112.513 47.8963C112.513 46.9091 113.372 46.4972 114.523 46.3338C115.198 46.2415 116.547 46.071 116.881 45.8011V47.0866C116.881 48.3011 115.901 49.331 114.352 49.331ZM127.105 36.4545V51H129.633V40.9858H129.768L133.788 50.9574H135.677L139.697 41.0071H139.832V51H142.36V36.4545H139.136L134.818 46.9943H134.647L130.329 36.4545H127.105ZM146.7 51.1562C147.538 51.1562 148.255 50.4602 148.262 49.5938C148.255 48.7415 147.538 48.0455 146.7 48.0455C145.833 48.0455 145.13 48.7415 145.137 49.5938C145.13 50.4602 145.833 51.1562 146.7 51.1562ZM78.6742 76C83.106 76 85.7338 73.2585 85.7338 68.7131C85.7338 64.1818 83.106 61.4545 78.7736 61.4545H73.7452V76H78.6742ZM76.3801 73.7202V63.7344H78.6245C81.579 63.7344 83.1202 65.3821 83.1202 68.7131C83.1202 72.0582 81.579 73.7202 78.5463 73.7202H76.3801ZM91.263 76.2202C92.9746 76.2202 93.9973 75.4176 94.4661 74.5014H94.5513V76H97.0229V68.6989C97.0229 65.8153 94.6721 64.9489 92.5911 64.9489C90.2971 64.9489 88.5357 65.9716 87.9675 67.9602L90.3681 68.3011C90.6238 67.5554 91.3482 66.9162 92.6053 66.9162C93.7985 66.9162 94.4519 67.527 94.4519 68.5994V68.642C94.4519 69.3807 93.6777 69.4162 91.753 69.6222C89.6365 69.8494 87.6124 70.4815 87.6124 72.9389C87.6124 75.0838 89.182 76.2202 91.263 76.2202ZM91.9306 74.331C90.8581 74.331 90.0911 73.8409 90.0911 72.8963C90.0911 71.9091 90.9505 71.4972 92.101 71.3338C92.7757 71.2415 94.1252 71.071 94.459 70.8011V72.0866C94.459 73.3011 93.4789 74.331 91.9306 74.331ZM105.056 65.0909H102.904V62.4773H100.333V65.0909H98.7843V67.0795H100.333V73.1449C100.318 75.1974 101.81 76.206 103.742 76.1491C104.473 76.1278 104.977 75.9858 105.254 75.8935L104.821 73.8835C104.679 73.919 104.388 73.983 104.068 73.983C103.422 73.983 102.904 73.7557 102.904 72.7188V67.0795H105.056V65.0909ZM110.345 76.2202C112.057 76.2202 113.079 75.4176 113.548 74.5014H113.633V76H116.105V68.6989C116.105 65.8153 113.754 64.9489 111.673 64.9489C109.379 64.9489 107.618 65.9716 107.05 67.9602L109.45 68.3011C109.706 67.5554 110.43 66.9162 111.687 66.9162C112.881 66.9162 113.534 67.527 113.534 68.5994V68.642C113.534 69.3807 112.76 69.4162 110.835 69.6222C108.719 69.8494 106.694 70.4815 106.694 72.9389C106.694 75.0838 108.264 76.2202 110.345 76.2202ZM111.013 74.331C109.94 74.331 109.173 73.8409 109.173 72.8963C109.173 71.9091 110.032 71.4972 111.183 71.3338C111.858 71.2415 113.207 71.071 113.541 70.8011V72.0866C113.541 73.3011 112.561 74.331 111.013 74.331Z" fill="white"/>
<defs>
<filter id="filter0_b_1501_60" x="-79.6602" y="-80" width="348" height="378" filterUnits="userSpaceOnUse" color-interpolation-filters="sRGB">
<feFlood flood-opacity="0" result="BackgroundImageFix"/>
<feGaussianBlur in="BackgroundImageFix" stdDeviation="40"/>
<feComposite in2="SourceAlpha" operator="in" result="effect1_backgroundBlur_1501_60"/>
<feBlend mode="normal" in="SourceGraphic" in2="effect1_backgroundBlur_1501_60" result="shape"/>
</filter>
</defs>
</svg>
