<svg width="381" height="113" viewBox="0 0 381 113" fill="none" xmlns="http://www.w3.org/2000/svg">
<rect x="1.08984" y="0.75" width="378.5" height="111.5" rx="7.25" fill="white" stroke="#EEF0F2" stroke-width="1.5"/>
<path d="M149.618 42H151.374V36.9261H156.317V35.4205H151.374V31.875H156.834V30.3636H149.618V42ZM161.892 42.1761C164.353 42.1761 165.961 40.375 165.961 37.6761C165.961 34.9602 164.353 33.1591 161.892 33.1591C159.432 33.1591 157.824 34.9602 157.824 37.6761C157.824 40.375 159.432 42.1761 161.892 42.1761ZM161.898 40.75C160.29 40.75 159.54 39.3466 159.54 37.6705C159.54 36 160.29 34.5795 161.898 34.5795C163.495 34.5795 164.245 36 164.245 37.6705C164.245 39.3466 163.495 40.75 161.898 40.75ZM169.556 30.3636H167.857V42H169.556V30.3636ZM173.54 30.3636H171.841V42H173.54V30.3636ZM179.502 42.1761C181.962 42.1761 183.57 40.375 183.57 37.6761C183.57 34.9602 181.962 33.1591 179.502 33.1591C177.042 33.1591 175.434 34.9602 175.434 37.6761C175.434 40.375 177.042 42.1761 179.502 42.1761ZM179.507 40.75C177.9 40.75 177.15 39.3466 177.15 37.6705C177.15 36 177.9 34.5795 179.507 34.5795C181.104 34.5795 181.854 36 181.854 37.6705C181.854 39.3466 181.104 40.75 179.507 40.75ZM187.093 42H188.82L190.593 35.6989H190.723L192.496 42H194.229L196.792 33.2727H195.036L193.337 39.6534H193.252L191.547 33.2727H189.792L188.076 39.6818H187.99L186.28 33.2727H184.525L187.093 42ZM201.9 42.1761C203.803 42.1761 205.15 41.2386 205.536 39.8182L203.928 39.5284C203.621 40.3523 202.882 40.7727 201.917 40.7727C200.462 40.7727 199.485 39.8295 199.439 38.1477H205.644V37.5455C205.644 34.392 203.757 33.1591 201.78 33.1591C199.348 33.1591 197.746 35.0114 197.746 37.6932C197.746 40.4034 199.326 42.1761 201.9 42.1761ZM199.445 36.875C199.513 35.6364 200.411 34.5625 201.792 34.5625C203.11 34.5625 203.973 35.5398 203.979 36.875H199.445ZM207.529 42H209.228V36.6705C209.228 35.5284 210.108 34.7045 211.313 34.7045C211.665 34.7045 212.063 34.767 212.199 34.8068V33.1818C212.029 33.1591 211.694 33.142 211.478 33.142C210.455 33.142 209.58 33.7216 209.262 34.6591H209.171V33.2727H207.529V42ZM225.915 34.0398H227.716C227.324 31.7727 225.387 30.2045 222.875 30.2045C219.864 30.2045 217.665 32.4716 217.665 36.1875C217.665 39.8693 219.801 42.1591 222.955 42.1591C225.779 42.1591 227.796 40.3068 227.796 37.3693V36.0455H223.222V37.4943H226.097C226.057 39.3693 224.819 40.5568 222.955 40.5568C220.904 40.5568 219.409 39.0057 219.409 36.1761C219.409 33.358 220.915 31.8068 222.887 31.8068C224.432 31.8068 225.478 32.6591 225.915 34.0398ZM229.888 42H231.587V36.6705C231.587 35.5284 232.468 34.7045 233.672 34.7045C234.025 34.7045 234.422 34.767 234.559 34.8068V33.1818C234.388 33.1591 234.053 33.142 233.837 33.142C232.814 33.142 231.939 33.7216 231.621 34.6591H231.53V33.2727H229.888V42ZM239.392 42.1761C241.853 42.1761 243.461 40.375 243.461 37.6761C243.461 34.9602 241.853 33.1591 239.392 33.1591C236.932 33.1591 235.324 34.9602 235.324 37.6761C235.324 40.375 236.932 42.1761 239.392 42.1761ZM239.398 40.75C237.79 40.75 237.04 39.3466 237.04 37.6705C237.04 36 237.79 34.5795 239.398 34.5795C240.995 34.5795 241.745 36 241.745 37.6705C241.745 39.3466 240.995 40.75 239.398 40.75ZM246.983 42H248.711L250.483 35.6989H250.614L252.387 42H254.12L256.682 33.2727H254.926L253.228 39.6534H253.142L251.438 33.2727H249.682L247.966 39.6818H247.881L246.171 33.2727H244.415L246.983 42ZM262.368 33.2727H260.578V31.1818H258.88V33.2727H257.601V34.6364H258.88V39.7898C258.874 41.375 260.084 42.142 261.425 42.1136C261.965 42.108 262.328 42.0057 262.527 41.9318L262.221 40.5284C262.107 40.5511 261.897 40.6023 261.624 40.6023C261.073 40.6023 260.578 40.4205 260.578 39.4375V34.6364H262.368V33.2727ZM266.134 36.8182C266.134 35.4261 267.015 34.6307 268.225 34.6307C269.395 34.6307 270.094 35.375 270.094 36.6534V42H271.793V36.4489C271.793 34.2727 270.6 33.1591 268.804 33.1591C267.446 33.1591 266.628 33.75 266.219 34.6932H266.111V30.3636H264.435V42H266.134V36.8182Z" fill="#8A8E97"/>
<rect x="20.3398" y="20" width="104" height="73" rx="6" fill="#F3F5FA"/>
<path d="M52.7575 42.9091H47.7433L40.5131 47.554V52.3835L47.3171 48.0369H47.4876V72H52.7575V42.9091ZM58.8183 66.6023H72.6961V72H77.7245V66.6023H81.4461V62.2699H77.7245V42.9091H71.162L58.8183 62.4119V66.6023ZM72.7529 62.2699H64.216V62.0426L72.5256 48.875H72.7529V62.2699ZM85.2413 72H90.3833V64.6705L92.2583 62.6676L98.9344 72H105.085L96.1362 59.5994L104.588 50.1818H98.5793L90.7384 58.946H90.3833V42.9091H85.2413V72Z" fill="#191124"/>
<rect x="148.34" y="77" width="134" height="8" rx="4" fill="#F3F5FA"/>
<rect x="148.34" y="61" width="208" height="8" rx="4" fill="#F3F5FA"/>
</svg>
